{
	"asset":{
		"generator":"Khronos glTF Blender I/O v4.2.60",
		"version":"2.0"
	},
	"scene":0,
	"scenes":[
		{
			"name":"Scene",
			"nodes":[
				0
			]
		}
	],
	"nodes":[
		{
			"mesh":0,
			"name":"granadero5:granadero2:san_martin_model_01:polySurface7",
			"rotation":[
				0.70710688829422,
				0,
				0,
				0.7071066498756409
			],
			"scale":[
				0.009999999776482582,
				0.010000000707805157,
				0.010000000707805157
			]
		}
	],
	"materials":[
		{
			"doubleSided":true,
			"name":"granadero5:SanMartin",
			"pbrMetallicRoughness":{
				"baseColorTexture":{
					"index":0
				},
				"metallicFactor":0,
				"roughnessFactor":0.5527864098548889
			}
		}
	],
	"meshes":[
		{
			"name":"Mesh",
			"primitives":[
				{
					"attributes":{
						"POSITION":0,
						"NORMAL":1,
						"TEXCOORD_0":2
					},
					"indices":3,
					"material":0
				}
			]
		}
	],
	"textures":[
		{
			"sampler":0,
			"source":0
		}
	],
	"images":[
		{
			"mimeType":"image/png",
			"name":"SanMartin_2D_View",
			"uri":"textures/SanMartin_2D_View.png"
		}
	],
	"accessors":[
		{
			"bufferView":0,
			"componentType":5126,
			"count":15634,
			"max":[
				-105.9451904296875,
				-174.5680694580078,
				75.88873291015625
			],
			"min":[
				-192.54449462890625,
				-222.29678344726562,
				-76.57630920410156
			],
			"type":"VEC3"
		},
		{
			"bufferView":1,
			"componentType":5126,
			"count":15634,
			"type":"VEC3"
		},
		{
			"bufferView":2,
			"componentType":5126,
			"count":15634,
			"type":"VEC2"
		},
		{
			"bufferView":3,
			"componentType":5123,
			"count":37968,
			"type":"SCALAR"
		}
	],
	"bufferViews":[
		{
			"buffer":0,
			"byteLength":187608,
			"byteOffset":0,
			"target":34962
		},
		{
			"buffer":0,
			"byteLength":187608,
			"byteOffset":187608,
			"target":34962
		},
		{
			"buffer":0,
			"byteLength":125072,
			"byteOffset":375216,
			"target":34962
		},
		{
			"buffer":0,
			"byteLength":75936,
			"byteOffset":500288,
			"target":34963
		}
	],
	"samplers":[
		{
			"magFilter":9729,
			"minFilter":9987
		}
	],
	"buffers":[
		{
			"byteLength":576224,
			"uri":"Sanmar02.bin"
		}
	]
}
